<svg width="21" height="18" viewBox="0 0 21 18" fill="none" xmlns="http://www.w3.org/2000/svg">
<path opacity="0.2" d="M7.03633e-05 8.59201C7.03633e-05 14.336 2.16007 17.208 6.48007 17.208C8.76807 17.208 10.4161 16.44 11.4241 14.904C12.4321 13.368 12.9361 11.264 12.9361 8.59201C12.9361 5.93601 12.4321 3.84001 11.4241 2.30401C10.4161 0.768007 8.76807 7.62939e-06 6.48007 7.62939e-06C2.16007 7.62939e-06 7.03633e-05 2.86401 7.03633e-05 8.59201ZM9.60007 8.59201C9.60007 10.336 9.38407 11.68 8.95207 12.624C8.53607 13.552 7.71207 14.016 6.48007 14.016C5.23207 14.016 4.39207 13.552 3.96007 12.624C3.54407 11.68 3.33607 10.336 3.33607 8.59201C3.33607 6.86401 3.54407 5.53601 3.96007 4.60801C4.39207 3.66401 5.23207 3.19201 6.48007 3.19201C7.71207 3.19201 8.53607 3.66401 8.95207 4.60801C9.38407 5.53601 9.60007 6.86401 9.60007 8.59201ZM14.3241 3.43201V0.264007H20.4201V17.208H16.8681V3.43201H14.3241Z" fill="#232536"/>
</svg>
