<svg width="27" height="18" viewBox="0 0 27 18" fill="none" xmlns="http://www.w3.org/2000/svg">
<path opacity="0.2" d="M7.03633e-05 8.68802C7.03633e-05 14.432 2.16007 17.304 6.48007 17.304C8.76807 17.304 10.4161 16.536 11.4241 15C12.4321 13.464 12.9361 11.36 12.9361 8.68802C12.9361 6.03202 12.4321 3.93602 11.4241 2.40001C10.4161 0.864016 8.76807 0.0960159 6.48007 0.0960159C2.16007 0.0960159 7.03633e-05 2.96002 7.03633e-05 8.68802ZM9.60007 8.68802C9.60007 10.432 9.38407 11.776 8.95207 12.72C8.53607 13.648 7.71207 14.112 6.48007 14.112C5.23207 14.112 4.39207 13.648 3.96007 12.72C3.54407 11.776 3.33607 10.432 3.33607 8.68802C3.33607 6.96002 3.54407 5.63202 3.96007 4.70402C4.39207 3.76002 5.23207 3.28801 6.48007 3.28801C7.71207 3.28801 8.53607 3.76002 8.95207 4.70402C9.38407 5.63202 9.60007 6.96002 9.60007 8.68802ZM14.9241 14.64C20.3481 10.88 23.0601 7.76002 23.0601 5.28001C23.0601 4.52802 22.8761 3.93602 22.5081 3.50401C22.1561 3.07201 21.5961 2.85601 20.8281 2.85601C19.2441 2.85601 18.4041 3.93602 18.3081 6.09602H15.0201C15.1161 4.09602 15.7241 2.58402 16.8441 1.56002C17.9641 0.520016 19.3801 1.57356e-05 21.0921 1.57356e-05C22.8361 1.57356e-05 24.1721 0.456016 25.1001 1.36802C26.0441 2.26402 26.5161 3.46402 26.5161 4.96802C26.5161 6.15202 26.1641 7.34402 25.4601 8.54402C24.7721 9.72802 23.8921 10.824 22.8201 11.832C21.7481 12.824 20.6201 13.68 19.4361 14.4H26.8521V17.16H14.9241V14.64Z" fill="#232536"/>
</svg>
