<svg width="28" height="18" viewBox="0 0 28 18" fill="none" xmlns="http://www.w3.org/2000/svg">
<path opacity="0.2" d="M7.03633e-05 8.97598C7.03633e-05 14.72 2.16007 17.592 6.48007 17.592C8.76807 17.592 10.4161 16.824 11.4241 15.288C12.4321 13.752 12.9361 11.648 12.9361 8.97598C12.9361 6.31998 12.4321 4.22398 11.4241 2.68798C10.4161 1.15198 8.76807 0.38398 6.48007 0.38398C2.16007 0.38398 7.03633e-05 3.24798 7.03633e-05 8.97598ZM9.60007 8.97598C9.60007 10.72 9.38407 12.064 8.95207 13.008C8.53607 13.936 7.71207 14.4 6.48007 14.4C5.23207 14.4 4.39207 13.936 3.96007 13.008C3.54407 12.064 3.33607 10.72 3.33607 8.97598C3.33607 7.24798 3.54407 5.91998 3.96007 4.99198C4.39207 4.04798 5.23207 3.57598 6.48007 3.57598C7.71207 3.57598 8.53607 4.04798 8.95207 4.99198C9.38407 5.91998 9.60007 7.24798 9.60007 8.97598ZM21.2601 -2.09808e-05C22.4121 -2.09808e-05 23.3961 0.199979 24.2121 0.59998C25.0441 0.999979 25.6681 1.55198 26.0841 2.25598C26.5161 2.95998 26.7321 3.74398 26.7321 4.60798C26.7321 5.69598 26.4361 6.59198 25.8441 7.29598C25.2521 7.98398 24.4681 8.40798 23.4921 8.56798V8.68798C25.8601 9.39198 27.0441 10.784 27.0441 12.864C27.0441 14.32 26.5561 15.504 25.5801 16.416C24.6041 17.312 23.2281 17.76 21.4521 17.76C19.5641 17.76 18.0601 17.296 16.9401 16.368C15.8201 15.424 15.1961 14.008 15.0681 12.12H18.3801C18.4601 12.984 18.7401 13.672 19.2201 14.184C19.7161 14.68 20.4121 14.928 21.3081 14.928C22.0761 14.928 22.6761 14.72 23.1081 14.304C23.5401 13.872 23.7561 13.312 23.7561 12.624C23.7561 11.808 23.4441 11.184 22.8201 10.752C22.1961 10.32 21.2761 10.104 20.0601 10.104H19.3641V7.34398H20.0601C22.3001 7.37598 23.4201 6.59998 23.4201 5.01598C23.4201 4.32798 23.2201 3.79198 22.8201 3.40798C22.4201 3.00798 21.8761 2.80798 21.1881 2.80798C20.4681 2.80798 19.8761 3.03998 19.4121 3.50398C18.9481 3.95198 18.6841 4.58398 18.6201 5.39998H15.3081C15.4041 3.67198 15.9641 2.34398 16.9881 1.41598C18.0121 0.471979 19.4361 -2.09808e-05 21.2601 -2.09808e-05Z" fill="#232536"/>
</svg>
