<svg width="29" height="18" viewBox="0 0 29 18" fill="none" xmlns="http://www.w3.org/2000/svg">
<path opacity="0.2" d="M7.03633e-05 8.66403C7.03633e-05 14.408 2.16007 17.28 6.48007 17.28C8.76807 17.28 10.4161 16.512 11.4241 14.976C12.4321 13.44 12.9361 11.336 12.9361 8.66403C12.9361 6.00803 12.4321 3.91203 11.4241 2.37603C10.4161 0.840029 8.76807 0.0720291 6.48007 0.0720291C2.16007 0.0720291 7.03633e-05 2.93603 7.03633e-05 8.66403ZM9.60007 8.66403C9.60007 10.408 9.38407 11.752 8.95207 12.696C8.53607 13.624 7.71207 14.088 6.48007 14.088C5.23207 14.088 4.39207 13.624 3.96007 12.696C3.54407 11.752 3.33607 10.408 3.33607 8.66403C3.33607 6.93603 3.54407 5.60803 3.96007 4.68003C4.39207 3.73603 5.23207 3.26403 6.48007 3.26403C7.71207 3.26403 8.53607 3.73603 8.95207 4.68003C9.38407 5.60803 9.60007 6.93603 9.60007 8.66403ZM27.2841 2.97603H19.2441V7.24803C19.6121 6.81603 20.1161 6.47203 20.7561 6.21603C21.4121 5.94403 22.1321 5.80803 22.9161 5.80803C24.0841 5.80803 25.0521 6.06403 25.8201 6.57603C26.6041 7.07203 27.1801 7.74403 27.5481 8.59203C27.9321 9.42403 28.1241 10.352 28.1241 11.376C28.1241 13.184 27.6121 14.632 26.5881 15.72C25.5801 16.808 24.1321 17.352 22.2441 17.352C21.0121 17.352 19.9401 17.136 19.0281 16.704C18.1161 16.256 17.4041 15.64 16.8921 14.856C16.3801 14.056 16.1001 13.128 16.0521 12.072H19.3401C19.4681 12.792 19.7641 13.368 20.2281 13.8C20.6921 14.216 21.3081 14.424 22.0761 14.424C23.0041 14.424 23.6921 14.144 24.1401 13.584C24.6041 13.008 24.8361 12.248 24.8361 11.304C24.8361 10.408 24.5961 9.71203 24.1161 9.21603C23.6361 8.72003 22.9561 8.47203 22.0761 8.47203C21.4361 8.47203 20.8921 8.61603 20.4441 8.90403C19.9961 9.17603 19.6681 9.54403 19.4601 10.008H16.1721V2.86102e-05H27.2841V2.97603Z" fill="#232536"/>
</svg>
